HIERARCHY
ROOT Hips
{
	OFFSET -80.168388 91.772041 -268.984589
	CHANNELS 6 Xposition Yposition Zposition Zrotation Yrotation Xrotation 
	JOINT LeftUpLeg
	{
		OFFSET 0.103457 1.857818 10.548502
		CHANNELS 3 Zrotation Yrotation Xrotation
		JOINT LeftLeg
		{
			OFFSET 43.500000 -0.000011 -0.000004
			CHANNELS 3 Zrotation Yrotation Xrotation
			JOINT LeftFoot
			{
				OFFSET 42.372192 -0.000004 -0.000008
				CHANNELS 3 Zrotation Yrotation Xrotation
				JOINT LeftToe
				{
					OFFSET 17.300014 0.000006 0.000001
					CHANNELS 3 Zrotation Yrotation Xrotation
					End Site
					{
						OFFSET 0.000000 0.000000 0.000000
					}
				}
			}
		}
	}
	JOINT RightUpLeg
	{
		OFFSET 0.103457 1.857817 -10.548505
		CHANNELS 3 Zrotation Yrotation Xrotation
		JOINT RightLeg
		{
			OFFSET 43.500046 -0.000004 0.000011
			CHANNELS 3 Zrotation Yrotation Xrotation
			JOINT RightFoot
			{
				OFFSET 42.372257 0.000000 0.000015
				CHANNELS 3 Zrotation Yrotation Xrotation
				JOINT RightToe
				{
					OFFSET 17.300003 -0.000000 0.000002
					CHANNELS 3 Zrotation Yrotation Xrotation
					End Site
					{
						OFFSET 0.000000 0.000000 0.000000
					}
				}
			}
		}
	}
	JOINT Spine
	{
		OFFSET 6.901961 -2.603721 -0.000001
		CHANNELS 3 Zrotation Yrotation Xrotation
		JOINT Spine1
		{
			OFFSET 12.588108 0.000002 -0.000001
			CHANNELS 3 Zrotation Yrotation Xrotation
			JOINT Spine2
			{
				OFFSET 12.343199 -0.000020 0.000006
				CHANNELS 3 Zrotation Yrotation Xrotation
				JOINT Neck
				{
					OFFSET 25.832905 0.000017 0.000000
					CHANNELS 3 Zrotation Yrotation Xrotation
					JOINT Head
					{
						OFFSET 11.766604 -0.000006 0.000004
						CHANNELS 3 Zrotation Yrotation Xrotation
						End Site
						{
							OFFSET 0.000000 0.000000 0.000000
						}
					}
				}
				JOINT LeftShoulder
				{
					OFFSET 19.745903 -1.480350 6.000100
					CHANNELS 3 Zrotation Yrotation Xrotation
					JOINT LeftArm
					{
						OFFSET 11.284130 -0.000016 -0.000016
						CHANNELS 3 Zrotation Yrotation Xrotation
						JOINT LeftForeArm
						{
							OFFSET 33.000046 0.000004 0.000031
							CHANNELS 3 Zrotation Yrotation Xrotation
							JOINT LeftHand
							{
								OFFSET 25.199999 0.000027 0.000001
								CHANNELS 3 Zrotation Yrotation Xrotation
								End Site
								{
									OFFSET 0.000000 0.000000 0.000000
								}
							}
						}
					}
				}
				JOINT RightShoulder
				{
					OFFSET 19.746094 -1.480375 -6.000080
					CHANNELS 3 Zrotation Yrotation Xrotation
					JOINT RightArm
					{
						OFFSET 11.284131 -0.000016 -0.000017
						CHANNELS 3 Zrotation Yrotation Xrotation
						JOINT RightForeArm
						{
							OFFSET 33.000095 0.000009 0.000020
							CHANNELS 3 Zrotation Yrotation Xrotation
							JOINT RightHand
							{
								OFFSET 25.199789 0.000132 0.000423
								CHANNELS 3 Zrotation Yrotation Xrotation
								End Site
								{
									OFFSET 0.000000 0.000000 0.000000
								}
							}
						}
					}
				}
			}
		}
	}
}
MOTION
Frames: 5
Frame Time: 0.033333
87.347450 79.393990 -300.661011 96.174869 -4.389564 -167.038574 -151.354383 1.038299 179.046743 -21.603733 -3.788457 1.765950 99.065207 -1.058448 0.001559 21.454557 0.003089 0.000001 140.157353 6.936706 -172.273176 -40.935906 2.162904 4.487044 63.343475 -5.110272 -4.311902 21.454563 -0.003107 -0.000017 9.936402 -1.126563 -1.820372 9.895778 -2.093325 -3.731013 9.578164 -2.115667 -3.718316 13.357139 -2.886924 -7.387488 -14.448352 20.183762 -14.782080 -156.044346 -85.065368 -25.786215 20.019261 63.378227 26.619131 -88.574863 -5.041000 2.594572 -3.248869 -4.197728 62.672047 -130.707623 74.221623 51.864683 38.040407 -46.460016 -65.532311 -33.751725 10.735212 -1.057228 7.036273 -4.880540 -14.344587 
89.822357 79.070610 -300.566315 94.848877 -2.710763 -168.195375 -153.380859 -0.098999 175.774645 -25.587946 -2.833789 2.915247 96.377330 -1.999348 -1.256978 21.454546 0.003094 -0.000001 138.096371 6.425705 -168.679048 -44.774400 2.411643 2.538958 66.265013 -4.794244 -7.588069 21.454558 -0.003109 -0.000017 10.232573 -0.628054 -1.667039 10.469091 -1.102680 -3.384173 10.151521 -1.122947 -3.377455 13.927670 -2.026944 -7.037505 -15.560604 18.964961 -14.163404 -168.484798 -85.222299 -13.250906 17.873890 63.314160 24.360040 -82.937362 -7.511615 2.519547 -5.342142 -6.689600 59.762441 -132.129600 74.689184 50.389181 34.901088 -47.012315 -61.604195 -33.651731 10.654392 -1.049770 6.589111 -2.190625 -10.284151 
92.460991 78.760910 -300.447510 94.043263 -1.282322 -169.442322 -156.824914 -1.478194 172.842909 -33.584293 -1.899313 3.779990 91.537799 -2.681229 -1.177825 21.454543 0.003095 -0.000001 137.106677 5.379502 -166.296719 -48.188460 2.105716 1.258256 69.627891 -4.165875 -9.199513 21.454560 -0.003107 -0.000017 10.575779 -0.149529 -1.619873 11.140734 -0.142342 -3.246544 10.823183 -0.161798 -3.245618 15.286093 -1.482548 -6.439877 -15.785493 17.792054 -13.135392 -177.193480 -85.073954 -4.475816 14.326677 64.192105 22.183708 -74.359552 -11.147630 2.405177 -3.826175 -8.952676 54.865014 -135.085009 75.812368 47.318502 31.460596 -47.274400 -57.546290 -34.638092 10.651646 -1.071285 6.747183 0.115658 -6.799789 
94.812172 79.130142 -300.316895 93.350750 0.331503 -170.094974 -162.506716 -3.680893 172.517369 -44.726077 -1.383720 3.842082 84.559286 -3.794570 -5.476178 21.454558 0.003090 0.000001 137.351648 3.676500 -165.531807 -49.186675 2.080889 1.202075 71.710812 -3.820441 -8.872527 21.454560 -0.003107 -0.000017 10.801476 0.338750 -1.609174 11.578814 0.836887 -3.176333 11.261217 0.817837 -3.181313 16.682974 -0.982879 -5.871770 -15.219668 16.685698 -12.034278 175.226987 -85.223446 3.157128 8.572629 65.651307 18.999124 -63.676262 -14.570680 2.208902 1.752180 -9.713399 47.637052 -138.533845 76.655684 43.765912 28.159502 -47.184108 -53.658000 -37.579496 10.925202 -1.157897 7.191598 1.610678 -6.501462 
96.983673 79.959412 -300.328003 92.670484 1.339120 -170.187018 -169.745924 -5.100296 174.145877 -58.077788 -1.128675 2.924167 80.116036 -4.118596 -8.183213 21.454560 0.003089 0.000001 138.287220 2.323196 -166.062403 -48.826178 2.310277 1.810705 73.068804 -3.904572 -8.154133 21.454553 -0.003108 -0.000017 10.894602 0.670553 -1.578889 11.757174 1.498110 -3.081568 11.439454 1.479617 -3.090540 17.402204 -0.497507 -5.404480 -14.624101 15.404071 -10.993800 164.745761 -85.544909 13.698259 2.740246 66.850026 15.366862 -53.576564 -16.243390 1.952439 9.048716 -7.807984 41.458408 -140.737182 76.931904 41.510516 25.792901 -46.846604 -50.182295 -42.689331 11.372951 -1.320359 7.180402 2.601166 -9.908923 
